<svg width="16px" height="16px" viewBox="0 0 16 16" version="1.1" xmlns="http://www.w3.org/2000/svg" xmlns:xlink="http://www.w3.org/1999/xlink">
    <desc>Created with Sketch.</desc>
    <defs></defs>
    <g id="Page-1" stroke="none" stroke-width="1" fill="none" fill-rule="evenodd">
        <g id="01" transform="translate(-682.000000, -867.000000)" fill="#9B9B9B">
            <g id="Text" transform="translate(162.000000, 554.000000)">
                <path d="M532.503159,317 C532.226934,317 532.003753,317.672 532.003753,318.5 C532.003753,319.328 532.226934,320 532.503159,320 C532.778382,320 533.002565,319.328 533.002565,318.5 C533.002565,317.672 532.778382,317 532.503159,317 Z M532.503159,321 C531.691499,321 531.034966,319.923 531.008945,318.58 L531.008945,318.42 C531.034966,317.077 531.691499,316 532.503159,316 C533.330831,316 534.001376,317.119 534.001376,318.5 C534.001376,319.881 533.330831,321 532.503159,321 Z M532.003753,314 C530.4615,314 529.20648,315.754 529.039344,318.002 L529.007318,318.002 L529.007318,318.475 C529.007318,318.483 529.005317,318.492 529.005317,318.5 C529.005317,318.507 529.007318,318.514 529.007318,318.521 L529.007318,322.001 L529.002314,322.001 L529.002314,323.001 L529.005317,323.001 L529.007318,323.001 L529.007318,323.002 L531.008945,323.002 L531.008945,323.001 L531.99975,323.001 L532.003753,323.001 C533.659098,323.001 535.001188,320.985 535.001188,318.5 C535.001188,316.015 533.659098,314 532.003753,314 Z M529.007318,314 L528.173641,314 L526.386189,314 C526.386189,314.001 526.386189,314.001 526.386189,314.001 L524.019266,314.002 C524.016263,314.002 524.013261,314 524.010258,314 C522.353913,314 521.011822,315.791 521.011822,318 C521.011822,318.005 521.013824,318.01 521.013824,318.015 L521.013824,328 L528.006505,328 L528.006505,319 L528.042535,319 C528.032526,318.833 528.006505,318.671 528.006505,318.5 C528.006505,316.636 528.684056,314.995 529.714893,314 L529.007318,314 Z M532.003753,324 L531.99975,324 L529.005317,324 L529.005317,329 L520.014011,329 L520.014011,320.002 L520,320.002 L520,318.002 L520.013011,318.002 L520.013011,318 C520.013011,315.238 521.802465,313 524.010258,313 L532.003753,313 C534.210546,313 536,315.462 536,318.5 C536,321.538 534.210546,324 532.003753,324 Z" id="Fill-1"></path>
            </g>
        </g>
    </g>
</svg>