<svg width="14px" height="16px" viewBox="0 0 14 16" version="1.1" xmlns="http://www.w3.org/2000/svg" xmlns:xlink="http://www.w3.org/1999/xlink">
    <desc>Created with Sketch.</desc>
    <defs></defs>
    <g id="Page-1" stroke="none" stroke-width="1" fill="none" fill-rule="evenodd">
        <g id="01" transform="translate(-837.000000, -502.000000)" fill="#12110C">
            <g id="Box-dx-1" transform="translate(809.000000, 442.000000)">
                <path d="M33,70.9996875 L34,70.9996875 L34,69.999625 L33,69.999625 L33,70.9996875 Z M36,70.9996875 L37,70.9996875 L37,69.999625 L36,69.999625 L36,70.9996875 Z M35,68.9995625 C33.343,68.9995625 32,69.6716045 32,70.4996562 C32,71.327708 33.343,71.99975 35,71.99975 C36.656,71.99975 38,71.327708 38,70.4996562 C38,69.6716045 36.656,68.9995625 35,68.9995625 Z M35,73.0008126 C32.791,73.0008126 31,71.8807425 31,70.4996562 C31,69.11957 32.791,67.9995 35,67.9995 C37.209,67.9995 39,69.11957 39,70.4996562 C39,71.8807425 37.209,73.0008126 35,73.0008126 Z M35,63.99925 C31.685,63.99925 29,66.4614038 29,69.4995937 C29,72.5367835 31.685,74.9999375 35,74.9999375 C38.313,74.9999375 41,72.5367835 41,69.4995937 C41,66.4614038 38.313,63.99925 35,63.99925 Z M40.624,61.3970873 C39.547,62.08013 38.748,63.1031939 38.301,63.7732358 L38.385,63.8432402 C39.236,64.2832677 39.977,64.8743046 40.562,65.5923495 C41.295,64.3492718 40.952,62.5181574 40.624,61.3970873 Z M29.375,61.3970873 C29.047,62.5181574 28.704,64.3492718 29.437,65.5923495 C30.023,64.8743046 30.764,64.2832677 31.615,63.8432402 L31.699,63.7732358 C31.252,63.1031939 30.453,62.08013 29.375,61.3970873 Z M42,69.4995937 C42,73.0898181 38.865,76 35,76 C31.134,76 28,73.0898181 28,69.4995937 C28,68.4025252 28.32,67.3844615 28.837,66.4784049 C26.979,64.1232577 28.806,60 28.806,60 C30.753,60.7220451 32.065,62.4771548 32.65,63.4022126 C33.389,63.1561973 34.172,62.9991874 35,62.9991874 C35.828,62.9991874 36.611,63.1561973 37.35,63.4022126 C37.934,62.4771548 39.246,60.7220451 41.194,60 C41.194,60 43.02,64.1232577 41.162,66.4784049 C41.68,67.3844615 42,68.4025252 42,69.4995937 Z" id="Page-1"></path>
            </g>
        </g>
    </g>
</svg>